<?xml version="1.0" encoding="utf-8"?>
<!-- Generator: Adobe Illustrator 16.0.0, SVG Export Plug-In . SVG Version: 6.00 Build 0)  -->
<!DOCTYPE svg PUBLIC "-//W3C//DTD SVG 1.1//EN" "http://www.w3.org/Graphics/SVG/1.1/DTD/svg11.dtd">
<svg version="1.1" xmlns="http://www.w3.org/2000/svg" xmlns:xlink="http://www.w3.org/1999/xlink" x="0px" y="0px"
	 width="595.28px" height="841.89px" viewBox="0 0 595.28 841.89" enable-background="new 0 0 595.28 841.89" xml:space="preserve">
<g id="圖層_3">
</g>
<g id="圖層_2">
	<g>
		<rect x="383.78" y="127.98" fill="#3F4E89" width="33.85" height="33.85"/>
		<path fill="#FFFFFF" d="M418.339,162.539h-35.268v-35.267h35.268V162.539z M384.489,161.122h32.432v-32.433h-32.432V161.122z"/>
	</g>
	<g>
		<rect x="316.07" y="195.69" fill="#3F4E89" width="33.85" height="33.85"/>
		<path fill="#FFFFFF" d="M350.629,230.249h-35.268v-35.267h35.268V230.249z M316.779,228.832h32.432v-32.433h-32.432V228.832z"/>
	</g>
	<g>
		<rect x="349.92" y="195.69" fill="#3F4E89" width="33.86" height="33.85"/>
		<path fill="#FFFFFF" d="M384.489,230.249h-35.278v-35.267h35.278V230.249z M350.629,228.832h32.442v-32.433h-32.442V228.832z"/>
	</g>
	<g>
		<rect x="316.07" y="229.54" fill="#3F4E89" width="33.85" height="33.86"/>
		<path fill="#FFFFFF" d="M350.629,264.108h-35.268v-35.277h35.268V264.108z M316.779,262.691h32.432v-32.443h-32.432V262.691z"/>
	</g>
	<g>
		<rect x="248.5" y="669.49" fill="#F43640" width="33.86" height="33.859"/>
		<path fill="#FFFFFF" d="M283.068,704.059h-35.277v-35.277h35.277V704.059z M249.208,702.641h32.443v-32.441h-32.443V702.641z"/>
	</g>
	<g>
		<rect x="248.5" y="635.64" fill="#F43640" width="33.86" height="33.851"/>
		<path fill="#FFFFFF" d="M283.068,670.199h-35.277v-35.269h35.277V670.199z M249.208,668.781h32.443v-32.433h-32.443V668.781z"/>
	</g>
	<g>
		<rect x="214.65" y="601.78" fill="#F43640" width="33.85" height="33.859"/>
		<path fill="#FFFFFF" d="M249.208,636.349h-35.267v-35.277h35.267V636.349z M215.358,634.931h32.433v-32.441h-32.433V634.931z"/>
	</g>
	<g>
		<rect x="248.5" y="601.78" fill="#F43640" width="33.86" height="33.859"/>
		<path fill="#FFFFFF" d="M283.068,636.349h-35.277v-35.277h35.277V636.349z M249.208,634.931h32.443v-32.441h-32.443V634.931z"/>
	</g>
	<g>
		<rect x="282.36" y="601.78" fill="#F43640" width="33.71" height="33.859"/>
		<path fill="#FFFFFF" d="M316.779,636.349h-35.128v-35.277h35.128V636.349z M283.068,634.931h32.293v-32.441h-32.293V634.931z"/>
	</g>
	<g>
		<rect x="282.36" y="567.93" fill="#F43640" width="33.71" height="33.851"/>
		<path fill="#FFFFFF" d="M316.779,602.489h-35.128v-35.269h35.128V602.489z M283.068,601.071h32.293v-32.433h-32.293V601.071z"/>
	</g>
	<g>
		<rect x="248.5" y="567.93" fill="#F43640" width="33.86" height="33.851"/>
		<path fill="#FFFFFF" d="M283.068,602.489h-35.277v-35.269h35.277V602.489z M249.208,601.071h32.443v-32.433h-32.443V601.071z"/>
	</g>
	<g>
		<rect x="180.79" y="567.93" fill="#F43640" width="33.86" height="33.851"/>
		<path fill="#FFFFFF" d="M215.358,602.489h-35.277v-35.269h35.277V602.489z M181.499,601.071h32.443v-32.433h-32.443V601.071z"/>
	</g>
	<g>
		<rect x="214.65" y="567.93" fill="#F43640" width="33.85" height="33.851"/>
		<path fill="#FFFFFF" d="M249.208,602.489h-35.267v-35.269h35.267V602.489z M215.358,601.071h32.433v-32.433h-32.433V601.071z"/>
	</g>
	<g>
		<rect x="282.36" y="534.09" fill="#F43640" width="33.71" height="33.84"/>
		<path fill="#FFFFFF" d="M316.779,568.639h-35.128v-35.258h35.128V568.639z M283.068,567.221h32.293v-32.422h-32.293V567.221z"/>
	</g>
	<g>
		<rect x="214.65" y="534.09" fill="#F43640" width="33.85" height="33.84"/>
		<path fill="#FFFFFF" d="M249.208,568.639h-35.267v-35.258h35.267V568.639z M215.358,567.221h32.433v-32.422h-32.433V567.221z"/>
	</g>
	<g>
		<rect x="248.5" y="534.09" fill="#F43640" width="33.86" height="33.84"/>
		<path fill="#FFFFFF" d="M283.068,568.639h-35.277v-35.258h35.277V568.639z M249.208,567.221h32.443v-32.422h-32.443V567.221z"/>
	</g>
	<g>
		<rect x="316.07" y="534.09" fill="#F43640" width="33.85" height="33.84"/>
		<path fill="#FFFFFF" d="M350.629,568.639h-35.268v-35.258h35.268V568.639z M316.779,567.221h32.432v-32.422h-32.432V567.221z"/>
	</g>
	<g>
		<rect x="316.07" y="500.23" fill="#F43640" width="33.85" height="33.859"/>
		<path fill="#FFFFFF" d="M350.629,534.799h-35.268v-35.277h35.268V534.799z M316.779,533.381h32.432v-32.441h-32.432V533.381z"/>
	</g>
	<g>
		<rect x="282.36" y="500.23" fill="#F43640" width="33.71" height="33.859"/>
		<path fill="#FFFFFF" d="M316.779,534.799h-35.128v-35.277h35.128V534.799z M283.068,533.381h32.293v-32.441h-32.293V533.381z"/>
	</g>
	<g>
		<rect x="248.5" y="500.23" fill="#F43640" width="33.86" height="33.859"/>
		<path fill="#FFFFFF" d="M283.068,534.799h-35.277v-35.277h35.277V534.799z M249.208,533.381h32.443v-32.441h-32.443V533.381z"/>
	</g>
	<g>
		<rect x="417.63" y="161.83" fill="#3F4E89" width="33.851" height="33.86"/>
		<path fill="#FFFFFF" d="M452.189,196.398h-35.269v-35.277h35.269V196.398z M418.339,194.981h32.433v-32.443h-32.433V194.981z"/>
	</g>
	<g>
		<rect x="349.92" y="161.83" fill="#3F4E89" width="33.86" height="33.86"/>
		<path fill="#FFFFFF" d="M384.489,196.398h-35.278v-35.277h35.278V196.398z M350.629,194.981h32.442v-32.443h-32.442V194.981z"/>
	</g>
	<g>
		<rect x="316.07" y="161.83" fill="#3F4E89" width="33.85" height="33.86"/>
		<path fill="#FFFFFF" d="M350.629,196.398h-35.268v-35.277h35.268V196.398z M316.779,194.981h32.432v-32.443h-32.432V194.981z"/>
	</g>
	<g>
		<rect x="248.5" y="229.54" fill="#3F4E89" width="33.86" height="33.86"/>
		<path fill="#FFFFFF" d="M283.068,264.108h-35.277v-35.277h35.277V264.108z M249.208,262.691h32.443v-32.443h-32.443V262.691z"/>
	</g>
	<g>
		<rect x="214.65" y="263.4" fill="#3F4E89" width="33.85" height="33.85"/>
		<path fill="#FFFFFF" d="M249.208,297.958h-35.267v-35.267h35.267V297.958z M215.358,296.542h32.433v-32.433h-32.433V296.542z"/>
	</g>
	<g>
		<rect x="248.5" y="297.25" fill="#3F4E89" width="33.86" height="33.86"/>
		<path fill="#FFFFFF" d="M283.068,331.818h-35.277v-35.277h35.277V331.818z M249.208,330.401h32.443v-32.443h-32.443V330.401z"/>
	</g>
	<g>
		<rect x="282.36" y="263.4" fill="#3F4E89" width="33.71" height="33.85"/>
		<path fill="#FFFFFF" d="M316.779,297.958h-35.128v-35.267h35.128V297.958z M283.068,296.542h32.293v-32.433h-32.293V296.542z"/>
	</g>
	<g>
		<rect x="282.36" y="195.69" fill="#3F4E89" width="33.71" height="33.85"/>
		<path fill="#FFFFFF" d="M316.779,230.249h-35.128v-35.267h35.128V230.249z M283.068,228.832h32.293v-32.433h-32.293V228.832z"/>
	</g>
	<g>
		<rect x="417.63" y="195.69" fill="#3F4E89" width="33.851" height="33.85"/>
		<path fill="#FFFFFF" d="M452.189,230.249h-35.269v-35.267h35.269V230.249z M418.339,228.832h32.433v-32.433h-32.433V228.832z"/>
	</g>
	<g>
		<rect x="417.63" y="229.54" fill="#3F4E89" width="33.851" height="33.86"/>
		<path fill="#FFFFFF" d="M452.189,264.108h-35.269v-35.277h35.269V264.108z M418.339,262.691h32.433v-32.443h-32.433V262.691z"/>
	</g>
	<g>
		<rect x="417.63" y="263.4" fill="#3F4E89" width="33.851" height="33.85"/>
		<path fill="#FFFFFF" d="M452.189,297.958h-35.269v-35.267h35.269V297.958z M418.339,296.542h32.433v-32.433h-32.433V296.542z"/>
	</g>
	<g>
		<rect x="417.63" y="297.25" fill="#3F4E89" width="33.851" height="33.86"/>
		<path fill="#FFFFFF" d="M452.189,331.818h-35.269v-35.277h35.269V331.818z M418.339,330.401h32.433v-32.443h-32.433V330.401z"/>
	</g>
	<g>
		<rect x="383.78" y="161.83" fill="#3F4E89" width="33.85" height="33.86"/>
		<path fill="#FFFFFF" d="M418.339,196.398h-35.268v-35.277h35.268V196.398z M384.489,194.981h32.432v-32.443h-32.432V194.981z"/>
	</g>
	<g>
		<rect x="383.78" y="195.69" fill="#3F4E89" width="33.85" height="33.85"/>
		<path fill="#FFFFFF" d="M418.339,230.249h-35.268v-35.267h35.268V230.249z M384.489,228.832h32.432v-32.433h-32.432V228.832z"/>
	</g>
	<g>
		<rect x="383.78" y="229.54" fill="#3F4E89" width="33.85" height="33.86"/>
		<path fill="#FFFFFF" d="M418.339,264.108h-35.268v-35.277h35.268V264.108z M384.489,262.691h32.432v-32.443h-32.432V262.691z"/>
	</g>
	<g>
		<rect x="383.78" y="263.4" fill="#3F4E89" width="33.85" height="33.85"/>
		<path fill="#FFFFFF" d="M418.339,297.958h-35.268v-35.267h35.268V297.958z M384.489,296.542h32.432v-32.433h-32.432V296.542z"/>
	</g>
	<g>
		<rect x="383.78" y="297.25" fill="#3F4E89" width="33.85" height="33.86"/>
		<path fill="#FFFFFF" d="M418.339,331.818h-35.268v-35.277h35.268V331.818z M384.489,330.401h32.432v-32.443h-32.432V330.401z"/>
	</g>
	<g>
		<rect x="383.78" y="331.11" fill="#3F4E89" width="33.85" height="33.85"/>
		<path fill="#FFFFFF" d="M418.339,365.668h-35.268v-35.267h35.268V365.668z M384.489,364.251h32.432v-32.433h-32.432V364.251z"/>
	</g>
	<g>
		<rect x="383.78" y="364.96" fill="#3F4E89" width="33.85" height="33.85"/>
		<path fill="#FFFFFF" d="M418.339,399.519h-35.268v-35.267h35.268V399.519z M384.489,398.102h32.432v-32.433h-32.432V398.102z"/>
	</g>
	<g>
		<rect x="383.78" y="398.81" fill="#F43640" width="33.85" height="33.709"/>
		<path fill="#FFFFFF" d="M418.339,433.229h-35.268v-35.127h35.268V433.229z M384.489,431.811h32.432v-32.292h-32.432V431.811z"/>
	</g>
	<g>
		<rect x="282.36" y="466.38" fill="#F43640" width="33.71" height="33.851"/>
		<path fill="#FFFFFF" d="M316.779,500.939h-35.128v-35.269h35.128V500.939z M283.068,499.521h32.293v-32.433h-32.293V499.521z"/>
	</g>
	<g>
		<rect x="316.07" y="466.38" fill="#F43640" width="33.85" height="33.851"/>
		<path fill="#FFFFFF" d="M350.629,500.939h-35.268v-35.269h35.268V500.939z M316.779,499.521h32.432v-32.433h-32.432V499.521z"/>
	</g>
	<g>
		<rect x="282.36" y="432.52" fill="#F43640" width="33.71" height="33.86"/>
		<path fill="#FFFFFF" d="M316.779,467.089h-35.128v-35.278h35.128V467.089z M283.068,465.671h32.293v-32.442h-32.293V465.671z"/>
	</g>
	<g>
		<rect x="349.92" y="229.54" fill="#3F4E89" width="33.86" height="33.86"/>
		<path fill="#FFFFFF" d="M384.489,264.108h-35.278v-35.277h35.278V264.108z M350.629,262.691h32.442v-32.443h-32.442V262.691z"/>
	</g>
	<g>
		<rect x="349.92" y="263.4" fill="#3F4E89" width="33.86" height="33.85"/>
		<path fill="#FFFFFF" d="M384.489,297.958h-35.278v-35.267h35.278V297.958z M350.629,296.542h32.442v-32.433h-32.442V296.542z"/>
	</g>
	<g>
		<rect x="349.92" y="331.11" fill="#3F4E89" width="33.86" height="33.85"/>
		<path fill="#FFFFFF" d="M384.489,365.668h-35.278v-35.267h35.278V365.668z M350.629,364.251h32.442v-32.433h-32.442V364.251z"/>
	</g>
	<g>
		<rect x="349.92" y="364.96" fill="#3F4E89" width="33.86" height="33.85"/>
		<path fill="#FFFFFF" d="M384.489,399.519h-35.278v-35.267h35.278V399.519z M350.629,398.102h32.442v-32.433h-32.442V398.102z"/>
	</g>
	<g>
		<rect x="349.92" y="398.81" fill="#F43640" width="33.86" height="33.709"/>
		<path fill="#FFFFFF" d="M384.489,433.229h-35.278v-35.127h35.278V433.229z M350.629,431.811h32.442v-32.292h-32.442V431.811z"/>
	</g>
	<g>
		<rect x="349.92" y="432.52" fill="#F43640" width="33.86" height="33.86"/>
		<path fill="#FFFFFF" d="M384.489,467.089h-35.278v-35.278h35.278V467.089z M350.629,465.671h32.442v-32.442h-32.442V465.671z"/>
	</g>
	<g>
		<rect x="349.92" y="466.38" fill="#F43640" width="33.86" height="33.851"/>
		<path fill="#FFFFFF" d="M384.489,500.939h-35.278v-35.269h35.278V500.939z M350.629,499.521h32.442v-32.433h-32.442V499.521z"/>
	</g>
	<g>
		<rect x="349.92" y="297.25" fill="#3F4E89" width="33.86" height="33.86"/>
		<path fill="#FFFFFF" d="M384.489,331.818h-35.278v-35.277h35.278V331.818z M350.629,330.401h32.442v-32.443h-32.442V330.401z"/>
	</g>
	<g>
		<rect x="316.07" y="263.4" fill="#3F4E89" width="33.85" height="33.85"/>
		<path fill="#FFFFFF" d="M350.629,297.958h-35.268v-35.267h35.268V297.958z M316.779,296.542h32.432v-32.433h-32.432V296.542z"/>
	</g>
	<g>
		<rect x="316.07" y="297.25" fill="#3F4E89" width="33.85" height="33.86"/>
		<path fill="#FFFFFF" d="M350.629,331.818h-35.268v-35.277h35.268V331.818z M316.779,330.401h32.432v-32.443h-32.432V330.401z"/>
	</g>
	<g>
		<rect x="316.07" y="331.11" fill="#3F4E89" width="33.85" height="33.85"/>
		<path fill="#FFFFFF" d="M350.629,365.668h-35.268v-35.267h35.268V365.668z M316.779,364.251h32.432v-32.433h-32.432V364.251z"/>
	</g>
	<g>
		<rect x="316.07" y="364.96" fill="#3F4E89" width="33.85" height="33.85"/>
		<path fill="#FFFFFF" d="M350.629,399.519h-35.268v-35.267h35.268V399.519z M316.779,398.102h32.432v-32.433h-32.432V398.102z"/>
	</g>
	<g>
		<rect x="316.07" y="398.81" fill="#F43640" width="33.85" height="33.709"/>
		<path fill="#FFFFFF" d="M350.629,433.229h-35.268v-35.127h35.268V433.229z M316.779,431.811h32.432v-32.292h-32.432V431.811z"/>
	</g>
	<g>
		<rect x="316.07" y="432.52" fill="#F43640" width="33.85" height="33.86"/>
		<path fill="#FFFFFF" d="M350.629,467.089h-35.268v-35.278h35.268V467.089z M316.779,465.671h32.432v-32.442h-32.432V465.671z"/>
	</g>
	<g>
		<rect x="282.36" y="297.25" fill="#3F4E89" width="33.71" height="33.86"/>
		<path fill="#FFFFFF" d="M316.779,331.818h-35.128v-35.277h35.128V331.818z M283.068,330.401h32.293v-32.443h-32.293V330.401z"/>
	</g>
	<g>
		<rect x="282.36" y="331.11" fill="#3F4E89" width="33.71" height="33.85"/>
		<path fill="#FFFFFF" d="M316.779,365.668h-35.128v-35.267h35.128V365.668z M283.068,364.251h32.293v-32.433h-32.293V364.251z"/>
	</g>
	<g>
		<rect x="282.36" y="364.96" fill="#3F4E89" width="33.71" height="33.85"/>
		<path fill="#FFFFFF" d="M316.779,399.519h-35.128v-35.267h35.128V399.519z M283.068,398.102h32.293v-32.433h-32.293V398.102z"/>
	</g>
	<g>
		<rect x="282.36" y="398.81" fill="#F43640" width="33.71" height="33.709"/>
		<path fill="#FFFFFF" d="M316.779,433.229h-35.128v-35.127h35.128V433.229z M283.068,431.811h32.293v-32.292h-32.293V431.811z"/>
	</g>
	<g>
		<rect x="282.36" y="229.54" fill="#3F4E89" width="33.71" height="33.86"/>
		<path fill="#FFFFFF" d="M316.779,264.108h-35.128v-35.277h35.128V264.108z M283.068,262.691h32.293v-32.443h-32.293V262.691z"/>
	</g>
	<g>
		<rect x="248.5" y="263.4" fill="#3F4E89" width="33.86" height="33.85"/>
		<path fill="#FFFFFF" d="M283.068,297.958h-35.277v-35.267h35.277V297.958z M249.208,296.542h32.443v-32.433h-32.443V296.542z"/>
	</g>
	<g>
		<rect x="214.65" y="297.25" fill="#3F4E89" width="33.85" height="33.86"/>
		<path fill="#FFFFFF" d="M249.208,331.818h-35.267v-35.277h35.267V331.818z M215.358,330.401h32.433v-32.443h-32.433V330.401z"/>
	</g>
	<g>
		<rect x="248.5" y="331.11" fill="#3F4E89" width="33.86" height="33.85"/>
		<path fill="#FFFFFF" d="M283.068,365.668h-35.277v-35.267h35.277V365.668z M249.208,364.251h32.443v-32.433h-32.443V364.251z"/>
	</g>
	<g>
		<rect x="146.94" y="432.52" fill="#F43640" width="33.85" height="33.86"/>
		<path fill="#FFFFFF" d="M181.499,467.089h-35.267v-35.278h35.267V467.089z M147.648,465.671h32.433v-32.442h-32.433V465.671z"/>
	</g>
	<g>
		<rect x="146.94" y="466.38" fill="#F43640" width="33.85" height="33.851"/>
		<path fill="#FFFFFF" d="M181.499,500.939h-35.267v-35.269h35.267V500.939z M147.648,499.521h32.433v-32.433h-32.433V499.521z"/>
	</g>
	<g>
		<rect x="180.79" y="432.52" fill="#F43640" width="33.86" height="33.86"/>
		<path fill="#FFFFFF" d="M215.358,467.089h-35.277v-35.278h35.277V467.089z M181.499,465.671h32.443v-32.442h-32.443V465.671z"/>
	</g>
	<g>
		<rect x="180.79" y="466.38" fill="#F43640" width="33.86" height="33.851"/>
		<path fill="#FFFFFF" d="M215.358,500.939h-35.277v-35.269h35.277V500.939z M181.499,499.521h32.443v-32.433h-32.443V499.521z"/>
	</g>
	<g>
		<rect x="180.79" y="500.23" fill="#F43640" width="33.86" height="33.859"/>
		<path fill="#FFFFFF" d="M215.358,534.799h-35.277v-35.277h35.277V534.799z M181.499,533.381h32.443v-32.441h-32.443V533.381z"/>
	</g>
	<g>
		<rect x="146.94" y="500.23" fill="#F43640" width="33.85" height="33.859"/>
		<path fill="#FFFFFF" d="M181.499,534.799h-35.267v-35.277h35.267V534.799z M147.648,533.381h32.433v-32.441h-32.433V533.381z"/>
	</g>
	<g>
		<rect x="180.79" y="534.09" fill="#F43640" width="33.86" height="33.84"/>
		<path fill="#FFFFFF" d="M215.358,568.639h-35.277v-35.258h35.277V568.639z M181.499,567.221h32.443v-32.422h-32.443V567.221z"/>
	</g>
	<g>
		<rect x="214.65" y="500.23" fill="#F43640" width="33.85" height="33.859"/>
		<path fill="#FFFFFF" d="M249.208,534.799h-35.267v-35.277h35.267V534.799z M215.358,533.381h32.433v-32.441h-32.433V533.381z"/>
	</g>
	<g>
		<rect x="214.65" y="466.38" fill="#F43640" width="33.85" height="33.851"/>
		<path fill="#FFFFFF" d="M249.208,500.939h-35.267v-35.269h35.267V500.939z M215.358,499.521h32.433v-32.433h-32.433V499.521z"/>
	</g>
	<g>
		<rect x="248.5" y="466.38" fill="#F43640" width="33.86" height="33.851"/>
		<path fill="#FFFFFF" d="M283.068,500.939h-35.277v-35.269h35.277V500.939z M249.208,499.521h32.443v-32.433h-32.443V499.521z"/>
	</g>
	<g>
		<rect x="214.65" y="432.52" fill="#F43640" width="33.85" height="33.86"/>
		<path fill="#FFFFFF" d="M249.208,467.089h-35.267v-35.278h35.267V467.089z M215.358,465.671h32.433v-32.442h-32.433V465.671z"/>
	</g>
	<g>
		<rect x="248.5" y="432.52" fill="#F43640" width="33.86" height="33.86"/>
		<path fill="#FFFFFF" d="M283.068,467.089h-35.277v-35.278h35.277V467.089z M249.208,465.671h32.443v-32.442h-32.443V465.671z"/>
	</g>
	<g>
		<rect x="146.94" y="398.81" fill="#F43640" width="33.85" height="33.709"/>
		<path fill="#FFFFFF" d="M181.499,433.229h-35.267v-35.127h35.267V433.229z M147.648,431.811h32.433v-32.292h-32.433V431.811z"/>
	</g>
	<g>
		<rect x="180.79" y="398.81" fill="#F43640" width="33.86" height="33.709"/>
		<path fill="#FFFFFF" d="M215.358,433.229h-35.277v-35.127h35.277V433.229z M181.499,431.811h32.443v-32.292h-32.443V431.811z"/>
	</g>
	<g>
		<rect x="214.65" y="398.81" fill="#F43640" width="33.85" height="33.709"/>
		<path fill="#FFFFFF" d="M249.208,433.229h-35.267v-35.127h35.267V433.229z M215.358,431.811h32.433v-32.292h-32.433V431.811z"/>
	</g>
	<g>
		<rect x="248.5" y="398.81" fill="#F43640" width="33.86" height="33.709"/>
		<path fill="#FFFFFF" d="M283.068,433.229h-35.277v-35.127h35.277V433.229z M249.208,431.811h32.443v-32.292h-32.443V431.811z"/>
	</g>
	<g>
		<rect x="214.65" y="331.11" fill="#3F4E89" width="33.85" height="33.85"/>
		<path fill="#FFFFFF" d="M249.208,365.668h-35.267v-35.267h35.267V365.668z M215.358,364.251h32.433v-32.433h-32.433V364.251z"/>
	</g>
	<g>
		<rect x="180.79" y="331.11" fill="#3F4E89" width="33.86" height="33.85"/>
		<path fill="#FFFFFF" d="M215.358,365.668h-35.277v-35.267h35.277V365.668z M181.499,364.251h32.443v-32.433h-32.443V364.251z"/>
	</g>
	<g>
		<rect x="180.79" y="364.96" fill="#3F4E89" width="33.86" height="33.85"/>
		<path fill="#FFFFFF" d="M215.358,399.519h-35.277v-35.267h35.277V399.519z M181.499,398.102h32.443v-32.433h-32.443V398.102z"/>
	</g>
	<g>
		<rect x="146.94" y="364.96" fill="#3F4E89" width="33.85" height="33.85"/>
		<path fill="#FFFFFF" d="M181.499,399.519h-35.267v-35.267h35.267V399.519z M147.648,398.102h32.433v-32.433h-32.433V398.102z"/>
	</g>
	<g>
		<rect x="214.65" y="364.96" fill="#3F4E89" width="33.85" height="33.85"/>
		<path fill="#FFFFFF" d="M249.208,399.519h-35.267v-35.267h35.267V399.519z M215.358,398.102h32.433v-32.433h-32.433V398.102z"/>
	</g>
	<g>
		<rect x="248.5" y="364.96" fill="#3F4E89" width="33.86" height="33.85"/>
		<path fill="#FFFFFF" d="M283.068,399.519h-35.277v-35.267h35.277V399.519z M249.208,398.102h32.443v-32.433h-32.443V398.102z"/>
	</g>
</g>
</svg>
